<svg width="184" height="120" viewBox="0 0 184 120" fill="none" xmlns="http://www.w3.org/2000/svg">
<g clip-path="url(#clip0_25_2073)">
<path d="M46.3949 41.1278C53.9897 41.1215 59.0157 40.3656 65.1507 44.0776C65.6325 44.3982 66.1109 44.7213 66.5864 45.0468C66.7195 45.0304 66.8531 45.0136 66.9861 44.9972C66.9807 44.5955 66.0457 43.8223 65.3593 43.8292C66.0457 43.8222 66.9807 44.5955 66.9861 44.9972C66.8531 45.0136 66.7196 45.0304 66.5866 45.0468C68.6934 46.7006 69.8328 47.9972 71.2243 49.9413C74.8476 46.0001 79.6973 42.6424 86.477 41.5558C91.3497 40.7744 96.4938 41.5577 100.664 43.4214C108.44 46.8961 113.056 53.3327 115 59.4496C117.729 68.0335 116.187 78.0026 109.349 85.5186C105.935 89.2701 100.689 92.6201 94.3302 93.5734C89.1593 94.3485 84.2717 93.5859 79.8626 91.6105C80.2022 92.2753 80.6426 93.0177 81.0144 93.6821L60.5192 93.6773C59.7214 92.4289 58.8946 90.8685 58.1568 89.5831L53.3778 81.2635C52.4128 81.2404 51.3598 81.251 50.3881 81.2471L50.3775 93.6807L32.613 93.674C32.497 88.7588 32.6078 83.6159 32.6033 78.6838C27.398 81.5023 24.526 81.2577 18.3663 81.2418L18.3583 93.648L0.551649 93.6489L0.550781 61.2604L18.3874 61.2632C18.349 62.4471 18.3824 63.7172 18.3825 64.9079C20.2601 64.9242 23.8059 65.2155 25.1365 64.2671C27.3223 62.7096 27.3353 59.4463 25.1612 57.8666C23.8359 56.9037 22.1326 57.2311 20.4219 57.169C19.0932 57.1507 17.7231 57.1762 16.3982 57.1786L0.552783 57.2084L0.552049 41.1061L16.5092 41.1042C23.2668 41.1042 26.9044 40.5794 32.6071 43.7247L32.6082 41.1306L46.3949 41.1278Z" fill="black"/>
<path d="M85.2333 44.6229C89.2452 43.6383 93.6568 43.8097 97.4852 45.1001C103.296 47.0158 107.769 51.1255 110.126 55.2275C110.321 55.5674 110.553 55.9405 110.699 56.2882C111.485 57.5688 112.135 59.3136 112.535 60.6843C114.07 65.9471 113.764 70.4743 112.109 75.662C111.351 77.4723 110.681 78.9017 109.575 80.6354C108.965 81.4703 108.309 82.4029 107.575 83.1833L107.593 83.2387C107.255 83.5309 107.011 83.8044 106.721 84.1183C106.484 84.3504 106.063 84.7346 105.871 84.9676C105.739 85.3576 105.649 85.3147 105.437 85.619C104.241 87.4076 102.126 88.4143 99.8404 89.4808C99.2298 89.7653 97.3171 90.5419 96.5168 90.5443C96.2449 90.5453 96.0773 90.3397 95.8818 90.2636C87.9651 91.954 80.5974 89.8712 75.6363 85.3691C74.7544 84.6243 74.1924 84.0697 73.4752 83.244C72.7461 82.5213 72.2393 81.7423 71.6999 80.9479C71.2137 80.1289 70.7396 79.3066 70.2775 78.4814L69.9053 77.8228C69.484 77.1752 69.0209 76.0062 68.8168 75.311C68.6909 75.0125 68.617 74.7126 68.5314 74.4078C68.458 74.2691 68.2437 73.4805 68.1885 73.2913L68.5497 72.8782C69.2746 71.9654 69.7933 71.2701 70.3568 70.2918C70.6988 69.7006 70.938 69.2268 71.2161 68.6187C71.5394 67.9409 71.7767 67.2322 72.027 66.5379C72.1144 66.1989 72.343 65.1898 72.4996 64.9192C72.4963 64.3429 72.7489 63.0261 72.7917 62.3208C72.9017 60.4995 72.7653 59.1581 72.4876 57.3555C72.4588 57.304 72.4141 57.0541 72.3992 56.9839L72.075 55.7749L71.5308 54.1856C72.7561 52.4562 73.8245 51.1496 75.5609 49.6306C75.6791 49.5011 76.1897 49.0899 76.3559 48.9498C78.1937 47.439 80.4408 46.1949 82.9694 45.2873C83.4214 45.062 84.6972 44.7346 85.2333 44.6229Z" fill="#FCBE2B"/>
<path d="M105.772 84.9939L105.858 84.9872C105.726 85.3772 105.636 85.3343 105.425 85.6386C104.229 87.4272 102.114 88.4339 99.8277 89.5004C99.2172 89.7849 97.3044 90.5615 96.5042 90.5639C96.2323 90.5649 96.0646 90.3593 95.8691 90.2832C99.9079 89.1518 103.196 87.4614 105.772 84.9939Z" fill="black"/>
<path d="M101.736 67.3689C101.736 73.5575 96.857 78.5743 90.8383 78.5743C84.8196 78.5743 79.9404 73.5575 79.9404 67.3689C79.9404 61.1804 84.8196 56.1636 90.8383 56.1636C96.857 56.1636 101.736 61.1804 101.736 67.3689Z" fill="black"/>
<path d="M90.6764 59.1107C92.1645 59.1401 93.6594 59.4694 94.7839 60.1704C100.038 63.4458 100.18 70.3075 95.8114 74.0128C94.5418 75.0893 92.8879 75.7032 90.9358 75.8182C80.2407 75.6608 79.8723 59.6225 90.6764 59.1107Z" fill="white"/>
<path d="M35.5072 44.0601L35.5588 43.9239C35.8633 43.8483 55.1092 43.8536 56.1064 43.9248C57.521 44.0274 58.8997 44.2989 60.1822 44.7274C62.4394 45.4718 64.772 46.8795 66.2169 48.2945C66.6602 48.7028 67.0964 49.1111 67.4567 49.5588C68.2199 50.322 68.914 51.3624 69.4338 52.2309C71.8759 56.3098 72.4168 61.0825 71.3245 65.4204C70.5958 68.3155 68.9212 71.3631 66.4085 73.7362L74.1302 87.1491C74.3473 87.528 74.8733 88.3758 75.0333 88.7365C75.4281 89.3951 75.8057 90.0585 76.1664 90.7268L74.1388 90.7157C73.4462 90.7379 72.6253 90.7369 71.9316 90.7229C68.756 90.6589 65.3931 90.8361 62.2439 90.6931C62.0119 90.5111 60.7543 88.1712 60.5665 87.8294L60.1318 87.073L59.5885 86.1255C59.4122 85.8386 59.2455 85.5054 59.087 85.2103C58.951 85.0466 58.7493 84.6585 58.6393 84.4659L58.2233 83.71C58.0509 83.4968 57.694 82.8348 57.5441 82.5757C57.339 82.2416 57.1512 81.8718 56.9667 81.5295L56.6492 80.9922C56.2952 80.518 55.4435 78.9104 55.0905 78.3062C53.4544 78.3124 51.8178 78.3076 50.1817 78.2912C49.4646 78.3259 48.3511 78.3004 47.6037 78.3004C47.7502 82.3196 47.6186 86.6715 47.6234 90.7191C46.4475 90.7196 44.8897 90.6888 43.7455 90.7316C43.1748 90.6921 41.8466 90.7109 41.2338 90.7104C39.5636 90.7485 37.0498 90.6406 35.4727 90.7552C35.6261 89.4861 35.4716 87.268 35.5052 85.9329C35.6018 82.0957 35.3769 78.1203 35.5263 74.2899C35.5369 73.9962 37.1378 72.2254 37.4733 71.7526C38.0089 70.9972 38.4613 70.2235 38.8762 69.4329C39.4328 68.263 39.8109 67.197 40.2034 65.9963L40.2206 65.9549C40.2782 65.3814 40.5413 64.3155 40.6519 63.6891C40.7226 63.3083 40.7596 62.7556 40.8041 62.3603C40.7788 61.5967 40.795 60.8028 40.7958 60.0363L40.7567 59.409C40.6223 58.903 40.5111 57.8361 40.3977 57.2318C40.2279 56.5072 40.008 55.7875 39.7979 55.0677C39.6897 54.8809 39.529 54.4134 39.4459 54.1991C38.8884 52.8202 38.1575 51.5959 37.2791 50.308C36.9337 49.8858 36.5923 49.4616 36.2547 49.036C35.9575 48.7351 35.4725 48.3355 35.5064 47.9999L35.5072 44.0601Z" fill="#FCBE2B"/>
<path d="M3.47165 43.937L16.1047 43.9389C18.6775 43.9374 24.0691 43.766 26.3155 44.287C35.9895 46.5301 39.9531 54.9089 39.8398 61.4192C39.8267 64.642 38.848 67.8278 36.9662 70.7729C36.5181 71.4768 35.5368 72.5244 35.2841 72.9645C35.0503 73.5134 34.6739 74.6342 33.9408 74.9625C33.4841 75.1667 33.0823 75.0473 32.903 75.5706C32.8577 75.703 32.0169 75.8191 31.7708 75.8773C28.9232 77.4801 26.9041 78.2384 23.1831 78.3828C20.8675 78.3299 17.9373 78.3496 15.5942 78.3741C15.5876 79.3303 15.5493 80.403 15.6162 81.3481C15.526 82.2687 15.6003 83.4492 15.5882 84.3962C15.561 86.5122 15.6315 88.6499 15.5924 90.7664C14.2875 90.7688 3.8236 90.8251 3.50786 90.7269C3.49024 90.5868 3.47376 90.621 3.52093 90.4915C3.39983 89.9975 3.46343 87.1978 3.46358 86.4568L3.46617 82.52C3.46703 81.8681 3.42784 80.9846 3.5046 80.3525C3.37466 78.7858 3.47352 76.5258 3.47405 74.9235L3.47957 64.7696L15.5788 64.7667C15.596 65.7691 15.592 66.771 15.5668 67.7729C16.8502 67.7084 18.3526 67.7696 19.6468 67.7595C22.5073 67.7364 24.1483 68.0402 26.5391 66.8067C27.0335 66.4451 27.4159 66.1249 27.8712 65.7378C27.9117 65.6569 28.5182 64.8919 28.6115 64.7715C28.9983 64.1086 29.1806 63.6502 29.4532 62.9666L29.4597 62.9179C29.749 61.4167 29.7687 60.3705 29.3409 58.8905L29.2883 58.7456C28.6892 58.2295 28.7614 57.7837 28.16 57.242C27.201 56.3783 26.0168 55.4342 24.5979 54.9387C24.4742 54.8959 23.0682 54.7794 22.8219 54.7539C22.9777 54.6311 24.0872 54.7977 24.3608 54.6118C23.4219 54.3287 18.2859 54.439 16.935 54.4453L7.788 54.438C6.57367 54.4443 4.46641 54.5237 3.32725 54.4091L3.3065 54.5969L3.21543 54.6253C3.08227 53.9879 3.24122 46.8373 3.41986 46.3255C3.49168 45.857 3.44883 44.5046 3.47165 43.937Z" fill="#FCBE2B"/>
<path d="M29.2883 58.7457C28.6891 58.2296 28.7614 57.7838 28.1599 57.2421C27.201 56.3784 26.0168 55.4342 24.5979 54.9388C24.4742 54.896 23.0682 54.7795 22.8219 54.7539C22.9777 54.6312 24.0872 54.7978 24.3608 54.6119C23.4219 54.3288 18.2859 54.4391 16.935 54.4453L7.788 54.4381C6.57367 54.4444 4.46641 54.5238 3.32725 54.4092L3.3065 54.597L3.21543 54.6254C3.08227 53.988 3.24122 46.8374 3.41986 46.3256L3.45402 46.9346C3.42592 49.3891 3.41708 51.844 3.42745 54.2985L17.1764 54.2961C19.2364 54.2961 22.1348 54.2046 24.1294 54.4073C26.8921 54.6885 28.6517 57.0024 29.2883 58.7457Z" fill="black"/>
<path d="M35.2838 72.9645C35.05 73.5133 34.6736 74.6342 33.9405 74.9625C33.4838 75.1667 33.082 75.0473 32.9026 75.5706C32.8574 75.703 32.0166 75.819 31.7705 75.8773C33.2842 74.845 34.0731 74.1388 35.2838 72.9645Z" fill="black"/>
<path d="M91.7237 0.0388184C92.0119 0.356484 92.9486 2.02025 93.2171 2.47769L96.3111 7.74396L108.068 27.6704L97.0537 27.6714C96.5109 26.7899 92.1065 19.0659 91.8596 18.9368L91.7136 19.095C89.9704 21.9395 88.2541 24.89 86.4456 27.7036C82.633 27.7035 78.697 27.7375 74.8945 27.6788C75.4844 26.8902 76.3193 25.392 76.8395 24.5344L80.4066 18.6553L91.7237 0.0388184Z" fill="black"/>
<path d="M148.436 95.9948C148.644 96.2157 149.488 97.6577 149.685 97.9837L152.422 102.51L162.72 119.467L134.728 119.444L125.039 119.428L133.469 110.974L146.003 110.972L141.275 103.158L148.436 95.9948Z" fill="black"/>
<path d="M33.2996 96.0529C35.0976 97.7124 36.7438 99.5603 38.5068 101.253C39.1268 101.848 39.9471 102.625 40.4631 103.258C38.948 105.851 37.3228 108.44 35.7876 111.033L48.2879 111.039C51.1249 113.775 53.9239 116.696 56.72 119.475L47.111 119.495L19.0215 119.521L33.2996 96.0529Z" fill="black"/>
<path d="M54.042 112.996L127.295 112.995C126.397 113.859 125.461 114.864 124.591 115.754C123.947 116.383 123.291 117.082 122.662 117.724L58.6745 117.717C57.1921 116.15 55.5782 114.545 54.042 112.996Z" fill="black"/>
<path fill-rule="evenodd" clip-rule="evenodd" d="M174.777 74.6514C182.77 74.4532 183.196 79.0188 183.226 83.4385C183.23 84.1028 183.368 85.0168 183.107 85.6504C182.278 86.427 174.023 85.718 172.418 86.041C171.538 86.2188 172.298 88.5139 172.603 88.8447C174.223 90.5958 178.355 89.856 180.87 89.8936C181.959 89.9103 183.001 89.5856 183.439 90.4072C183.436 90.7399 183.407 91.3307 183.45 91.6494C183.731 93.7387 183.194 93.6803 180.32 93.6211C177.511 93.5634 172.797 94.0248 170.473 92.6885C167.324 90.8783 167.814 86.787 167.712 84.2266C167.656 80.1987 167.421 75.1521 174.777 74.6514ZM175.107 77.8613C171.904 78.2076 172.126 80.4851 172.057 82.2559L175.798 82.2656L178.674 82.2607C178.647 81.1525 178.691 79.1633 177.532 78.3447C176.821 77.8426 176.028 77.8488 175.107 77.8613Z" fill="black"/>
<path d="M100.96 30.6842L107.654 30.6851C108.165 31.6655 108.922 32.862 109.498 33.8386L112.956 39.7002L123.281 57.2103C123.756 58.0139 126.963 63.2723 126.954 63.6147L120.353 63.6421L107.264 41.4363L103.199 34.5476C102.501 33.3681 101.536 31.8581 100.96 30.6842Z" fill="black"/>
<path d="M155.763 69.0221C156.581 69.0318 157.399 69.0058 158.217 69.0019C158.676 69 159.408 68.9494 159.74 69.1988C160.398 69.6942 160.112 73.5565 160.107 74.3634C161.453 74.3634 165.478 74.1506 166.301 74.6643C166.598 75.0697 166.438 77.7211 166.395 78.3022C166.317 79.3711 161.559 78.3966 160.347 78.9276C159.947 79.3297 160.112 82.0595 160.111 82.7254L160.115 89.4508C160.117 90.627 160.126 91.8158 160.112 92.9924C160.107 93.4262 160.04 93.536 159.601 93.8138C158.619 93.8023 156.498 93.9688 155.656 93.7392C155.532 93.7055 155.364 93.653 155.307 93.5586C154.927 92.9356 155.123 91.0228 155.124 90.2539C155.125 89.0262 155.318 79.4543 155.015 79.0774C154.441 78.3634 150.372 79.0875 149.242 78.7172C149.003 78.6392 148.891 78.5242 148.821 78.3508C148.686 78.0138 148.678 74.8256 148.91 74.6229C149.427 74.1718 154.147 74.3586 155.131 74.3629C155.151 72.8752 155.06 71.3476 155.143 69.8613C155.167 69.4261 155.312 69.2879 155.763 69.0221Z" fill="black"/>
<path d="M118.275 76.2317C121.9 76.1995 121.943 75.9217 121.908 78.5543C123.277 78.5528 129.467 78.4513 130.355 78.6934C130.585 78.8523 130.662 79.0564 130.707 79.275C130.801 79.7305 130.839 82.6096 130.423 82.8758C129.872 83.2297 123.123 83.1228 121.881 83.1228C121.858 88.6461 121.538 89.5084 130.434 89.2142C130.957 89.1969 131.609 89.1998 132.146 89.193L132.316 89.1906C132.965 89.1786 133.719 89.1723 133.728 89.8103C133.74 90.6177 134.035 93.0731 133.4 93.6422C132.769 93.8685 130.22 93.8458 129.32 93.8044C126.906 93.7067 120.673 94.1183 118.993 92.7399C116.741 90.8916 117.812 85.715 117.644 83.2856C117.504 81.2769 117.75 79.3588 117.66 77.3574C117.638 76.8803 117.79 76.5379 118.275 76.2317Z" fill="black"/>
<path d="M135.591 69.2087C136.627 69.1976 137.694 69.1697 138.728 69.2029C139.681 69.2332 139.89 69.4648 139.913 70.1104C139.979 71.9034 139.951 73.7055 139.95 75.5004L139.949 85.7655C139.944 86.87 139.878 88.075 139.971 89.1776C140.028 89.854 141.036 89.4891 141.445 89.7683C141.959 90.1198 141.805 91.531 141.805 92.0841C141.804 92.751 141.887 93.2806 141.217 93.7375C140.005 93.7428 136.187 93.8708 135.313 93.5502C134.843 93.1665 135.013 88.2152 135.014 87.4838L135.015 78.2697L135.012 72.6564C135.012 71.7464 134.993 70.7859 135.04 69.875C135.054 69.5943 135.324 69.4094 135.591 69.2087Z" fill="black"/>
<path d="M143.486 74.3763C144.189 74.3686 144.955 74.3657 145.651 74.3575C147.551 74.3353 147.704 74.4648 147.707 75.7359C147.718 79.6598 147.713 83.5827 147.716 87.5061L147.717 91.3447C147.716 91.9518 147.742 92.6081 147.678 93.2113C147.656 93.4145 147.39 93.5926 147.188 93.738C146.291 93.7472 143.668 93.9075 143.064 93.4761C142.827 92.6514 142.901 90.9687 142.9 90.0568L142.898 84.6876L142.899 78.2924C142.898 77.2202 142.884 76.1254 142.916 75.0527C142.926 74.7157 143.136 74.5939 143.486 74.3763Z" fill="black"/>
<path d="M118.247 69.2799C119.573 69.2255 132.648 69.1957 133.275 69.3733C133.979 69.9467 133.686 70.9318 133.692 71.6554C133.698 72.4672 134.006 73.3194 133.157 73.9472C128.408 73.9992 123.61 73.9337 118.857 73.9477C117.494 73.9515 117.616 72.8143 117.698 72.1152C117.808 71.1846 117.257 69.9992 118.247 69.2799Z" fill="black"/>
<path d="M143.372 69.3593C144.469 69.378 145.368 69.56 146.175 70.0935C147.224 70.7863 148.261 72.5686 147.012 73.377C146.285 73.3679 143.482 73.5431 143.001 73.1589C142.659 72.7834 142.639 71.975 142.685 71.546C142.771 70.742 142.402 69.8966 143.372 69.3593Z" fill="black"/>
<path d="M139.324 96.4784L143.933 96.4813L142.355 98.0662C141.938 98.488 141.513 98.9059 141.079 99.3195C140.491 98.5159 139.824 97.319 139.324 96.4784Z" fill="black"/>
<path d="M37.8984 96.4906C39.4058 96.466 40.9778 96.4834 42.4904 96.4867L41.2109 98.5936L40.7347 99.3548C39.7981 98.4169 38.7933 97.4424 37.8984 96.4906Z" fill="black"/>
<path d="M82.4834 30.6903C80.3425 34.115 78.245 37.6252 76.1699 41.0731C75.9058 41.2021 75.7761 41.2557 75.5557 41.4257V41.4247C75.3125 41.5347 75.062 41.6552 74.8213 41.7841C74.5809 41.9128 74.3508 42.0509 74.1475 42.1952C73.0796 42.7421 71.0232 44.236 70.2119 45.0135C70.0285 45.1645 69.8481 45.3177 69.6709 45.4725C69.7791 45.5014 69.828 45.5387 69.9072 45.5907C69.8282 45.5387 69.7791 45.5014 69.6709 45.4725C69.1843 44.8376 68.1796 43.9706 67.5264 43.3866C69.9368 39.2073 72.7188 34.8691 75.2373 30.6942L82.4834 30.6903ZM70.5029 45.368L70.4365 45.538V45.537L70.5029 45.3671V45.368Z" fill="black"/>
<path fill-rule="evenodd" clip-rule="evenodd" d="M76.6308 101.355C80.5236 101.101 80.7363 106.255 77.5918 107.045C73.9794 107.247 73.491 102.489 76.6308 101.355ZM76.902 102.574C75.1703 103.302 75.2276 105.594 77.3075 105.845C79.2654 105.139 79.0069 102.608 76.902 102.574Z" fill="black"/>
<path d="M112.187 101.673C113.398 101.117 114.277 101.265 115.086 101.994C116.489 103.219 116.365 105.875 114.488 106.842C110.796 108.259 109.74 102.796 112.187 101.673ZM113.22 102.557C111.388 103.359 111.598 105.729 113.613 105.85C115.42 105.178 115.408 102.746 113.22 102.557Z" fill="black"/>
<path d="M80.5846 101.472C80.9664 101.344 81.3525 101.383 81.789 101.388C84.1994 101.398 84.1938 103.556 83.1963 104.662C83.4197 105.313 84.1604 106.414 83.818 106.905C83.5578 107.051 83.5386 107.033 83.2097 107.044C82.7347 106.846 82.5676 106.095 82.4206 105.69C82.3154 105.395 82.2966 105.255 82.0066 105.071C81.6412 105.088 81.7813 105.037 81.5504 105.199C81.2675 105.788 81.8376 106.593 81.2763 107C80.9593 107.022 80.9044 107.044 80.6004 106.974C80.2614 106.623 80.3042 101.696 80.5846 101.472ZM81.4991 102.628C81.4727 102.968 81.3763 103.421 81.5597 103.714C81.8857 103.865 82.0869 103.817 82.4561 103.726C82.9138 103.029 82.7112 102.609 81.4991 102.628Z" fill="black"/>
<path d="M116.746 101.402C117.392 101.392 118.584 101.308 119.109 101.57C120.472 102.25 120.283 103.776 119.458 104.646C119.641 105.287 120.686 106.648 119.851 107.026C119.577 107.039 119.538 107.065 119.311 106.973C119.085 106.77 119.019 106.491 118.923 106.237C118.773 105.872 118.62 105.448 118.412 105.102C118.103 105.027 118.258 105.036 117.928 105.084C117.303 105.663 118.387 106.605 117.383 107.004C116.934 107.007 117.118 107.054 116.788 106.908C116.608 106.5 116.64 101.951 116.746 101.402ZM118.607 102.634C118.209 102.644 118.14 102.611 118.002 102.674C117.978 102.685 117.953 102.698 117.925 102.714C117.896 102.731 117.863 102.75 117.825 102.774C117.648 103.091 117.753 103.498 117.793 103.854C119.032 103.781 119.271 103.348 118.607 102.634Z" fill="black"/>
<path d="M133.271 101.397C133.838 101.383 134.488 101.398 135.062 101.404C135.254 101.979 136.428 106.726 136.215 106.961C135.928 107.056 135.754 107.023 135.436 107.004C135.039 106.745 134.962 105.814 134.878 105.378C134.387 105.327 133.9 105.34 133.403 105.34C133.323 105.769 133.237 107.155 132.39 107.129C132.131 107.01 132.141 107.023 131.993 106.835C131.956 106.342 133.012 101.916 133.271 101.397ZM134.107 102.607C133.976 102.961 133.606 103.853 133.827 104.195C133.875 104.269 134.172 104.295 134.326 104.322C134.519 104.185 134.536 104.233 134.525 104.07C134.505 103.767 134.353 102.817 134.107 102.607Z" fill="black"/>
<path d="M90.2679 101.389C90.4831 102.076 91.6126 106.438 91.48 106.933C90.2737 107.584 90.1909 105.735 90.0656 105.352L88.6345 105.352C88.5471 105.802 88.4356 107.166 87.531 107.092C86.9437 106.643 87.3533 105.653 87.5617 105.119C87.5752 104.835 87.7165 104.211 87.8591 103.948C87.9724 103.176 88.2485 102.175 88.4373 101.391L90.2679 101.389ZM89.3088 102.705C89.1652 103.112 89.001 103.926 88.8267 104.227C88.9785 104.231 89.0938 104.236 89.1988 104.238C89.2339 104.238 89.2678 104.238 89.3016 104.238C89.369 104.236 89.4357 104.232 89.5095 104.224C89.5833 104.216 89.6641 104.204 89.7596 104.186C89.761 104.113 89.755 104.028 89.7431 103.935C89.7232 103.781 89.687 103.606 89.6433 103.431C89.5732 103.152 89.4831 102.874 89.4062 102.685L89.3088 102.705Z" fill="black"/>
<path d="M61.4018 101.41L64.9158 101.415C64.9355 101.778 64.9134 102.23 64.9072 102.599L62.4257 102.586L62.4238 103.739L64.4303 103.745C64.4548 104.096 64.4303 104.553 64.4245 104.913C63.8108 104.917 63.099 104.796 62.5688 104.976C62.3378 105.233 62.4195 105.3 62.4248 105.64C62.4521 105.728 62.4238 105.674 62.5655 105.782C63.2148 105.844 64.2588 105.816 64.9441 105.811C64.9835 106.192 64.9667 106.597 64.9638 106.98C63.7555 106.988 62.5472 106.987 61.3389 106.977C61.2659 106.376 61.2294 101.889 61.4018 101.41Z" fill="black"/>
<path d="M61.4618 101.562L64.7572 101.558L64.7548 102.437L62.3277 102.433C62.3133 102.911 62.319 103.404 62.3162 103.883C62.8934 103.896 63.5028 103.808 64.0177 103.923C64.4249 104.175 64.4307 104.382 64.1171 104.687C63.6748 104.84 62.8814 104.762 62.3282 104.751C62.3027 105.032 62.2974 105.331 62.2849 105.614C62.3392 105.841 62.2672 105.752 62.467 105.905C63.1052 106.01 64.155 105.962 64.8394 105.954L64.8475 106.837L61.458 106.833L61.4618 101.562Z" fill="black"/>
<path d="M61.8854 105.615C61.8935 105.816 61.8974 105.808 61.9963 105.999C62.7249 106.376 63.7929 105.745 64.4941 106.164C64.6381 106.385 64.5954 106.468 64.5603 106.707C63.5557 106.845 60.6627 106.893 61.8854 105.615Z" fill="black"/>
<path d="M106.764 101.401C108.374 101.381 109.881 101.297 110.184 102.736C110.251 103.053 110.191 103.284 110.202 103.589C110.225 104.292 109.415 104.964 108.417 105.046C108.193 105.063 108.128 105.058 107.901 105.12L107.85 105.28C107.867 105.815 107.968 106.452 107.681 106.935C107.303 107.167 106.828 107.014 106.821 106.873C106.819 106.85 106.818 106.827 106.816 106.804C106.811 106.803 106.805 106.802 106.8 106.801L106.804 106.607C106.713 105.125 106.491 102.725 106.764 101.401ZM107.84 103.849C108.52 103.824 108.842 103.823 109.12 103.352C109.134 102.749 108.561 102.653 107.85 102.577L107.84 103.849Z" fill="black"/>
<path d="M65.9785 103.721C65.8003 103.348 65.807 102.82 65.9698 102.401C66.3627 101.389 68.627 100.995 69.2653 102.072C69.453 102.39 69.1298 102.716 68.8936 103.005C68.3187 102.729 67.8855 102.494 67.2343 102.786C67.0225 103.009 67.0494 103.065 67.0485 103.33C68.1401 103.907 69.2091 104.132 69.4607 105.191C69.5664 105.637 69.4199 106.12 69.017 106.48C68.7067 106.761 68.2395 106.938 67.7314 106.967C67.0024 107.008 66.4117 106.791 65.8848 106.464C65.7676 106.391 65.6524 106.316 65.5386 106.24C65.7071 105.925 65.8541 105.64 66.0611 105.334C66.708 105.682 67.5301 106.118 68.2856 105.643C68.361 104.817 66.2729 104.752 65.9785 103.721Z" fill="black"/>
<path d="M71.947 101.421C73.7018 101.36 74.3362 101.94 73.4909 103.027C72.9536 102.734 72.1448 102.395 71.5781 102.874C71.5527 103.692 73.9525 104.001 74.0283 105.088C74.0985 106.086 73.8113 106.879 72.1712 107.014C70.4716 106.794 69.9045 106.438 70.6551 105.343L70.8078 105.417C71.4509 105.733 72.2024 106.103 72.8729 105.623C73.161 104.845 71.1502 104.785 70.7324 104.046C70.1432 103.005 70.3967 101.921 71.947 101.421Z" fill="black"/>
<path d="M54.699 105.17C53.6986 104.72 52.5806 104.522 52.352 103.611C52.2127 103.056 52.2055 102.485 52.6968 102C53.4364 101.189 55.6181 101.199 55.7353 102.316C55.755 102.503 55.4678 102.856 55.3319 103.032C54.7191 102.708 53.518 102.267 53.4839 103.193C54.0934 104.025 55.3747 103.693 55.815 104.992C55.9284 105.33 55.9135 105.682 55.7713 106.014C55.4592 106.723 54.806 106.989 53.7937 107.001C52.6445 106.762 51.4491 106.387 52.4716 105.473C53.0887 105.387 53.7663 106.141 54.6115 105.734C54.7691 105.479 54.7494 105.457 54.699 105.17Z" fill="black"/>
<path d="M58.9828 104.996C58.2024 104.749 57.6131 104.57 57.1847 104.015C56.5628 103.209 56.8538 101.964 58.0794 101.523C58.4574 101.382 58.9021 101.358 59.3069 101.456C60.7092 101.79 60.4566 102.34 59.9053 103.014C59.4092 102.77 58.8512 102.481 58.2259 102.752C57.7797 103.372 58.9741 103.787 59.5787 104.029C60.5575 104.631 60.8807 105.948 59.8962 106.62C58.7839 107.379 55.9937 106.889 56.9902 105.489L57.057 105.394L57.0983 105.337C57.6698 105.667 58.576 106.029 59.2891 105.673C59.4606 105.369 59.2786 105.228 58.9828 104.996Z" fill="black"/>
<path d="M120.745 101.401L124.782 101.399C124.814 101.81 124.79 102.184 124.77 102.595L123.417 102.587L123.414 106.065C123.422 106.256 123.529 107.012 123.087 107.01C122.673 107.008 122.547 107.05 122.231 106.87C122.063 106.357 122.154 103.295 122.159 102.601L120.737 102.591C120.711 102.157 120.72 101.835 120.745 101.401Z" fill="black"/>
<path d="M120.808 102.293C120.82 102.073 120.782 101.764 120.929 101.607C121.642 101.517 123.817 101.552 124.675 101.554C124.68 101.803 124.741 102.199 124.605 102.398C124.263 102.409 123.693 102.398 123.412 102.5C122.818 103.242 123.679 106.52 123.039 106.845L122.334 106.88C122.122 106.367 122.262 103.141 122.258 102.436C121.749 102.444 121.139 102.512 120.808 102.293Z" fill="black"/>
<path d="M120.808 102.293C120.82 102.073 120.782 101.764 120.929 101.607C121.642 101.517 123.817 101.552 124.675 101.554C124.68 101.803 124.741 102.199 124.605 102.398C124.035 102.318 124.048 102.214 123.478 102.07C123.186 102.124 123.196 102.138 122.96 102.277C122.974 102.497 122.993 102.78 122.871 102.981C122.55 102.868 122.657 102.849 122.424 102.894C122.291 103.916 122.548 106.028 122.334 106.88C122.122 106.367 122.262 103.141 122.258 102.436C121.749 102.444 121.139 102.512 120.808 102.293Z" fill="black"/>
<path d="M96.4875 101.77C97.0402 101.744 97.1867 101.696 97.582 101.923C97.7486 102.184 97.6857 102.563 97.6761 102.865C98.5439 102.859 99.4247 102.867 100.293 102.87C100.344 103.426 100.328 103.77 100.267 104.321C99.4179 104.332 98.5328 104.323 97.6799 104.323V105.522L100.829 105.51C100.875 105.538 100.921 105.567 100.966 105.595C101.757 107.445 99.9232 107.048 98.2577 107.01C97.9249 106.99 96.3189 107.173 96.3544 106.748C96.4289 105.853 96.0773 102.403 96.4875 101.77Z" fill="black"/>
<path d="M96.8439 101.897C97.2607 101.91 97.437 101.885 97.5542 102.188C97.5008 102.301 97.3914 102.521 97.4019 102.626C97.4586 103.19 99.6451 103.034 100.173 103.027L100.178 104.148C99.7575 104.152 98.1309 104.036 97.7847 104.226C97.2041 104.544 97.2742 105.666 98.1866 105.719C98.8239 105.757 99.9323 105.701 100.677 105.695C100.724 105.7 100.836 105.74 100.886 105.756C101.004 106.058 100.953 106.55 100.946 106.879C99.5573 106.8 97.8601 106.826 96.4669 106.878C96.3708 105.586 96.4328 103.491 96.5067 102.138C96.5144 101.995 96.6801 101.964 96.8439 101.897Z" fill="black"/>
<path d="M96.3444 99.7953C97.0364 99.7452 100.593 99.7004 101.082 99.8651C101.072 100.336 101.059 100.806 101.041 101.276C99.6086 101.278 97.9628 101.251 96.55 101.284C96.161 100.951 96.3204 100.262 96.3444 99.7953Z" fill="black"/>
<path d="M101.082 99.8651C101.072 100.336 101.059 100.806 101.041 101.276C99.6086 101.278 97.9628 101.251 96.55 101.284C96.5812 101.006 96.429 100.963 96.6134 100.797C96.6773 100.801 96.7416 100.805 96.806 100.809C97.6137 101.129 98.5291 100.495 99.4022 100.708C99.795 100.804 100.169 100.859 100.52 100.786C100.749 100.533 100.629 100.349 100.692 99.9719L101.082 99.8651Z" fill="black"/>
<path d="M85.195 106.991L85.0634 106.884C84.9323 106.519 84.9242 101.784 85.1441 101.464C85.4049 101.35 85.5547 101.388 85.8659 101.411C86.01 101.448 86.119 101.45 86.1425 101.537C86.3135 102.163 86.3298 106.638 86.108 106.961C85.8328 107.081 85.5067 107.039 85.195 106.991Z" fill="black"/>
<path d="M85.195 106.991L85.0634 106.884C84.9323 106.519 84.9242 101.784 85.1441 101.464C85.4049 101.35 85.5547 101.388 85.8659 101.411C85.6556 101.495 85.5667 101.517 85.33 101.555C85.1787 101.725 85.2133 105.564 85.2834 105.915C85.6335 106.199 85.7242 106.205 85.7679 106.548C85.6536 106.657 85.5446 106.761 85.425 106.867L85.5341 106.855L85.4673 106.985L85.195 106.991Z" fill="black"/>
<path d="M125.867 101.374C126.042 101.368 126.838 101.333 126.841 101.492C126.866 102.674 127.239 106.024 126.846 107.032C126.361 107.046 126.118 107.112 125.759 106.872C125.656 106.276 125.625 101.767 125.867 101.374Z" fill="black"/>
<path d="M125.987 101.508C126.324 101.606 126.358 101.468 126.709 101.599C126.82 102.104 126.866 106.582 126.63 106.866C126.214 106.921 126.413 106.93 126.009 106.831L125.97 106.74L126.081 106.783C126.674 106.586 126.527 106.596 126.542 106.142L126.28 106.119L126.202 105.992C126.366 105.841 126.312 105.908 126.35 105.699L126.21 105.691L126.067 105.995C125.856 105.694 125.96 102.11 125.987 101.508Z" fill="black"/>
<path d="M104.43 103.801C106.287 104.547 106.467 106.405 104.533 106.97C103.783 107.021 103.474 106.968 102.754 106.726C102.362 106.581 102.237 106.479 102.093 106.194C101.946 106.072 102.425 105.391 102.545 105.434C103.345 105.72 105.501 106.379 104.474 105.029C103.959 104.863 103.659 104.77 103.175 104.55C103.543 104.361 103.746 104.557 104.191 104.287C104.187 104.168 104.187 104.049 104.189 103.93L104.43 103.801Z" fill="black"/>
<path d="M104.43 103.801C106.287 104.547 106.467 106.405 104.533 106.97C104.294 106.521 105.439 106.174 105.472 105.594C105.495 105.173 105.339 104.882 104.969 104.564L104.821 104.569C104.607 104.804 104.661 104.677 104.679 104.969L104.474 105.029C103.959 104.863 103.659 104.77 103.175 104.55C103.543 104.361 103.746 104.557 104.191 104.287C104.187 104.168 104.187 104.049 104.189 103.93L104.43 103.801Z" fill="black"/>
<path d="M102.273 102.807C102.487 102.204 102.659 101.881 103.456 101.56C104.328 101.209 105.217 101.378 105.677 101.999C105.859 102.245 105.702 102.481 105.574 102.713C104.881 103.053 104.38 102.543 103.657 102.716C103.38 102.939 103.439 103.144 103.579 103.41L104.43 103.801L104.189 103.93C104.187 104.049 104.187 104.168 104.191 104.287C103.746 104.557 103.543 104.361 103.175 104.55C102.283 104.043 102.292 103.544 102.273 102.807Z" fill="black"/>
<path d="M129.788 104.817L129.909 104.766C130.116 104.078 130.515 101.77 130.903 101.431C131.265 101.386 131.26 101.396 131.602 101.449C131.911 101.666 131.821 101.967 131.717 102.246C131.469 102.922 130.833 106.647 130.38 106.963C130.017 107.047 129.97 107.034 129.576 107.013C128.939 106.75 128.995 106.152 128.898 105.659L128.816 105.514C129.422 105.111 129.046 104.797 129.756 104.593L129.788 104.817Z" fill="black"/>
<path d="M128.816 105.514C128.739 104.466 127.797 102.524 128.05 101.49C128.067 101.42 128.244 101.397 128.369 101.364C129.16 101.47 129.226 102.103 129.338 102.577C129.494 103.245 129.626 103.922 129.756 104.593C129.046 104.797 129.422 105.111 128.816 105.514Z" fill="black"/>
<path d="M47.1919 99.8472C47.9105 99.8295 48.7332 99.8491 49.4597 99.8558C49.7023 100.585 51.1894 106.599 50.9196 106.897C50.5566 107.017 50.3352 106.975 49.9327 106.951C49.43 106.623 49.3332 105.444 49.2262 104.891C48.6054 104.827 47.9882 104.843 47.359 104.843C47.258 105.386 47.1487 107.144 46.0769 107.111C45.7486 106.959 45.7612 106.976 45.5745 106.737C45.5265 106.114 46.8648 100.504 47.1919 99.8472ZM48.2497 101.38C48.0837 101.829 47.6163 102.959 47.8966 103.392C47.9574 103.486 48.333 103.519 48.5276 103.554C48.772 103.38 48.7933 103.441 48.7793 103.234C48.7538 102.851 48.5616 101.646 48.2497 101.38Z" fill="black"/>
<path d="M50.0146 56.5052H54.8316C57.2655 56.5052 59.2386 58.4783 59.2386 60.9122C59.2386 63.3461 57.2655 65.3192 54.8316 65.3192H50.0146V56.5052Z" fill="white"/>
<path d="M55.0703 54.1821C58.6929 54.1821 61.6299 57.1191 61.6299 60.7417V61.0151C61.6296 64.6375 58.6927 67.5737 55.0703 67.5737H47.623V54.1821H55.0703ZM56.8047 57.6743C55.5956 56.9658 52.0432 57.2558 50.4502 57.2192C50.3263 57.6588 50.3784 59.2235 50.3789 59.7583L50.3867 64.9009C52.637 65.0294 55.8033 65.2232 57.4414 64.0737C59.3388 62.2384 59.3818 59.1846 56.8047 57.6743Z" fill="black"/>
</g>
<defs>
<clipPath id="clip0_25_2073">
<rect width="184" height="120" fill="white"/>
</clipPath>
</defs>
</svg>
